<?xml version="1.0" standalone="no"?><svg xmlns="http://www.w3.org/2000/svg" viewBox="0 0 1440 320"><path fill="#0099ff" fill-opacity="1" d="M0,160L30,144C60,128,120,96,180,80C240,64,300,64,360,96C420,128,480,192,540,202.7C600,213,660,171,720,149.3C780,128,840,128,900,117.3C960,107,1020,85,1080,106.7C1140,128,1200,192,1260,197.3C1320,203,1380,149,1410,122.7L1440,96L1440,0L1410,0C1380,0,1320,0,1260,0C1200,0,1140,0,1080,0C1020,0,960,0,900,0C840,0,780,0,720,0C660,0,600,0,540,0C480,0,420,0,360,0C300,0,240,0,180,0C120,0,60,0,30,0L0,0Z"></path></svg>